<svg xmlns="http://www.w3.org/2000/svg" viewBox="0 0 1600 700" preserveAspectRatio="xMidYMid slice">
  <defs>
    <linearGradient id="bg" x1="0" x2="1" y1="0" y2="1">
      <stop offset="0%" stop-color="#0b1930"/>
      <stop offset="50%" stop-color="#10213a"/>
      <stop offset="100%" stop-color="#132848"/>
    </linearGradient>
    <linearGradient id="beam" x1="0" x2="1">
      <stop offset="0%" stop-color="#02baff" stop-opacity="0.0"/>
      <stop offset="50%" stop-color="#02baff" stop-opacity="0.28"/>
      <stop offset="100%" stop-color="#0071ff" stop-opacity="0.0"/>
    </linearGradient>
  </defs>
  <rect width="1600" height="700" fill="url(#bg)"/>
  <circle cx="1380" cy="120" r="220" fill="#02baff" opacity="0.09"/>
  <circle cx="180" cy="90" r="170" fill="#0071ff" opacity="0.09"/>
  <g opacity="0.9">
    <rect x="170" y="140" width="240" height="290" rx="22" fill="#f8fbff"/>
    <circle cx="290" cy="126" r="22" fill="#ffd86a"/>
    <path d="M290 126L316 101" stroke="#8b5e00" stroke-width="7" stroke-linecap="round"/>
    <rect x="210" y="190" width="140" height="14" rx="7" fill="#8fb8ff"/>
    <rect x="210" y="226" width="110" height="14" rx="7" fill="#8fb8ff"/>
    <rect x="210" y="262" width="132" height="14" rx="7" fill="#8fb8ff"/>
  </g>
  <g opacity="0.8">
    <rect x="530" y="210" width="250" height="300" rx="22" fill="#fff6d8"/>
    <circle cx="655" cy="196" r="20" fill="#ff7b72"/>
    <path d="M655 196L679 171" stroke="#7a1f18" stroke-width="7" stroke-linecap="round"/>
    <rect x="572" y="260" width="145" height="14" rx="7" fill="#b68d00"/>
    <rect x="572" y="296" width="108" height="14" rx="7" fill="#b68d00"/>
    <rect x="572" y="332" width="150" height="14" rx="7" fill="#b68d00"/>
  </g>
  <g opacity="0.84">
    <rect x="920" y="160" width="260" height="320" rx="22" fill="#e9f8ff"/>
    <circle cx="1050" cy="146" r="20" fill="#5ad6ff"/>
    <path d="M1050 146L1074 121" stroke="#005ea8" stroke-width="7" stroke-linecap="round"/>
    <rect x="962" y="212" width="154" height="14" rx="7" fill="#0071ff"/>
    <rect x="962" y="248" width="122" height="14" rx="7" fill="#0071ff"/>
    <rect x="962" y="284" width="168" height="14" rx="7" fill="#0071ff"/>
  </g>
  <rect x="0" y="564" width="1600" height="8" fill="url(#beam)"/>
</svg>
